<?xml version="1.0" standalone="no"?><!DOCTYPE svg PUBLIC "-//W3C//DTD SVG 1.1//EN" "http://www.w3.org/Graphics/SVG/1.1/DTD/svg11.dtd"><svg t="1611909179230" class="icon" viewBox="0 0 1024 1024" version="1.1" xmlns="http://www.w3.org/2000/svg" p-id="2626" xmlns:xlink="http://www.w3.org/1999/xlink" width="48" height="48"><defs><style type="text/css"></style></defs><path d="M835.69631 911.097604 198.782346 911.097604c-52.106752 0-94.355995-42.205241-94.355995-94.363158L104.426351 227.049133c0-52.154847 42.250266-94.40102 94.355995-94.40102l94.361111 0 0-11.795651c0-19.531845 15.847943-35.385928 35.381835-35.385928 19.558451 0 35.385928 15.854083 35.385928 35.385928l0 11.795651 306.661332 0 0-11.795651c0-19.531845 15.854083-35.385928 35.385928-35.385928 19.529799 0 35.381835 15.854083 35.381835 35.385928l0 11.795651 94.355995 0c52.110845 0 94.361111 42.24515 94.361111 94.40102L930.057421 816.734446C930.056398 868.892363 887.807155 911.097604 835.69631 911.097604L835.69631 911.097604zM859.288634 250.590292c0-26.043143-21.138436-47.174416-47.179532-47.174416l-70.76981 0 0 11.793604c0 19.533892-15.852036 35.381835-35.381835 35.381835-19.531845 0-35.385928-15.847943-35.385928-35.381835L670.571529 203.415876 363.910197 203.415876l0 11.793604c0 19.533892-15.827477 35.381835-35.385928 35.381835-19.533892 0-35.381835-15.847943-35.381835-35.381835L293.142433 203.415876l-70.76981 0c-26.041096 0-47.179532 21.131273-47.179532 47.174416l0 542.55797c0 26.067702 21.138436 47.181579 47.179532 47.181579L812.110125 840.32984c26.041096 0 47.179532-21.113877 47.179532-47.181579L859.289658 250.590292 859.288634 250.590292zM515.848655 690.912809c-0.024559 0-0.024559 0.049119-0.045025 0.049119-13.823843 13.823843-36.211736 13.823843-50.03558 0L333.5047 558.695508c-13.803377-13.778818-13.803377-36.213783 0.020466-50.037626 13.799284-13.81668 36.211736-13.81668 50.03558 0l107.238396 107.265002 183.710069-183.736675c13.82589-13.823843 36.238342-13.823843 50.062186 0 13.799284 13.823843 13.799284 36.207643 0 50.028417L515.848655 690.912809 515.848655 690.912809zM515.848655 690.912809" p-id="2627" fill="#20B2AA"></path></svg>