<?xml version="1.0" standalone="no"?><!DOCTYPE svg PUBLIC "-//W3C//DTD SVG 1.1//EN" "http://www.w3.org/Graphics/SVG/1.1/DTD/svg11.dtd"><svg t="1611907147436" class="icon" viewBox="0 0 1024 1024" version="1.1" xmlns="http://www.w3.org/2000/svg" p-id="8235" xmlns:xlink="http://www.w3.org/1999/xlink" width="48" height="48"><defs><style type="text/css"></style></defs><path d="M828.373333 286.08l-175.786666-175.786667A85.333333 85.333333 0 0 0 592.213333 85.333333H277.333333a106.666667 106.666667 0 0 0-106.666666 106.666667v640a106.666667 106.666667 0 0 0 106.666666 106.666667h469.333334a106.666667 106.666667 0 0 0 106.666666-106.666667V346.453333a85.333333 85.333333 0 0 0-24.96-60.373333z m-188.373333-128L780.586667 298.666667H661.333333a21.333333 21.333333 0 0 1-21.333333-21.333334zM810.666667 832a64 64 0 0 1-64 64H277.333333a64 64 0 0 1-64-64V192a64 64 0 0 1 64-64h320v149.333333a64 64 0 0 0 64 64h149.333334z" p-id="8236" fill="#20B2AA"></path><path d="M649.813333 424.32H603.733333l-64 85.333333a407.68 407.68 0 0 0-25.386666 36.48 459.093333 459.093333 0 0 0-25.813334-39.466666l-58.24-82.133334h-50.986666l109.226666 153.386667-123.946666 167.253333h50.986666l80.426667-111.786666c3.2-4.48 8.106667-12.373333 15.36-24.106667 4.906667 7.68 9.386667 14.933333 14.08 21.333333l80.64 114.56h52.48l-121.386667-170.666666z" p-id="8237" fill="#20B2AA"></path></svg>