<?xml version="1.0" standalone="no"?><!DOCTYPE svg PUBLIC "-//W3C//DTD SVG 1.1//EN" "http://www.w3.org/Graphics/SVG/1.1/DTD/svg11.dtd"><svg t="1611555370893" class="icon" viewBox="0 0 1024 1024" version="1.1" xmlns="http://www.w3.org/2000/svg" p-id="3531" width="64" height="64" xmlns:xlink="http://www.w3.org/1999/xlink"><defs><style type="text/css"></style></defs><path d="M512 518.08927253m-482.63884895 0a482.63884895 482.63884895 0 1 0 965.2776979 0 482.63884895 482.63884895 0 1 0-965.2776979 0Z" fill="#FFFFFF" p-id="3532"></path><path d="M485.18673009 786.22196692v-26.81326991-1.47473033a241.77524954 241.77524954 0 0 1-213.03142421-213.05823803h-28.34162627a26.81326991 26.81326991 0 0 1 0-53.62653822h28.34162627A241.82887712 241.82887712 0 0 1 485.18673009 278.19095081v-28.28799866a26.81326991 26.81326991 0 0 1 53.62653982 0v26.81326991a13.80883321 13.80883321 0 0 1 0 1.47472875 241.53393012 241.53393012 0 0 1 213.08505182 213.05823962h28.28799866a26.81326991 26.81326991 0 0 1 0 53.62653822h-28.28799866A241.53393012 241.53393012 0 0 1 538.81326991 757.93396668 13.78202098 13.78202098 0 0 1 538.81326991 759.40869701v26.81326991a26.81326991 26.81326991 0 0 1-53.62653982 0z m-160.87961632-268.13269439a187.69288623 187.69288623 0 1 0 187.69288623-187.82695203A187.98783166 187.98783166 0 0 0 324.30711377 518.08927253z m107.25307808-0.13406581a80.43980815 80.43980815 0 1 1 80.43980815 80.43980816A80.43980815 80.43980815 0 0 1 431.56019185 518.08927253z" fill="#00CC9A" p-id="3533"></path></svg>