<?xml version="1.0" standalone="no"?><!DOCTYPE svg PUBLIC "-//W3C//DTD SVG 1.1//EN" "http://www.w3.org/Graphics/SVG/1.1/DTD/svg11.dtd"><svg t="1611907010393" class="icon" viewBox="0 0 1024 1024" version="1.1" xmlns="http://www.w3.org/2000/svg" p-id="4359" xmlns:xlink="http://www.w3.org/1999/xlink" width="48" height="48"><defs><style type="text/css"></style></defs><path d="M917.333333 481.706667h-65.493333A341.333333 341.333333 0 0 0 533.333333 171.733333V106.666667a21.333333 21.333333 0 0 0-42.666666 0v65.066666A341.333333 341.333333 0 0 0 171.733333 490.666667H106.666667a21.333333 21.333333 0 0 0 0 42.666666h65.066666A341.333333 341.333333 0 0 0 490.666667 853.333333v64a21.333333 21.333333 0 0 0 42.666666 0v-64a341.333333 341.333333 0 0 0 320-328.96h64a21.333333 21.333333 0 0 0 0-42.666666zM533.333333 810.666667v-64a21.333333 21.333333 0 0 0-42.666666 0v64a298.666667 298.666667 0 0 1-276.266667-277.333334H277.333333a21.333333 21.333333 0 0 0 0-42.666666h-62.933333A298.666667 298.666667 0 0 1 490.666667 214.4V277.333333a21.333333 21.333333 0 0 0 42.666666 0v-62.933333a298.666667 298.666667 0 0 1 275.84 267.306667H746.666667a21.333333 21.333333 0 0 0 0 42.666666h64A298.666667 298.666667 0 0 1 533.333333 810.666667z" p-id="4360" fill="#20B2AA"></path><path d="M512 512m-42.666667 0a42.666667 42.666667 0 1 0 85.333334 0 42.666667 42.666667 0 1 0-85.333334 0Z" p-id="4361" fill="#20B2AA"></path></svg>