<?xml version="1.0" standalone="no"?><!DOCTYPE svg PUBLIC "-//W3C//DTD SVG 1.1//EN" "http://www.w3.org/Graphics/SVG/1.1/DTD/svg11.dtd"><svg t="1611907017849" class="icon" viewBox="0 0 1024 1024" version="1.1" xmlns="http://www.w3.org/2000/svg" p-id="4619" xmlns:xlink="http://www.w3.org/1999/xlink" width="48" height="48"><defs><style type="text/css"></style></defs><path d="M918.826667 189.866667a42.666667 42.666667 0 0 0-41.386667-2.346667l-217.813333 104.533333a21.333333 21.333333 0 0 1-18.346667 0l-240.853333-110.933333a64 64 0 0 0-54.4 0L109.44 295.04A42.666667 42.666667 0 0 0 85.333333 333.44v464.64a42.666667 42.666667 0 0 0 61.226667 38.4l217.173333-104.533333a21.333333 21.333333 0 0 1 18.133334 0l241.28 111.146666a62.933333 62.933333 0 0 0 54.4 0l236.8-113.493333A42.666667 42.666667 0 0 0 938.666667 690.56V225.92a42.666667 42.666667 0 0 0-19.84-36.053333zM128 798.08V333.44l224-106.666667V691.2a42.666667 42.666667 0 0 0-6.826667 2.346667z m271.786667-104.96l-5.12-1.92V225.28l228.906666 105.6 4.053334 1.493333v465.706667zM896 690.56l-225.706667 108.16V333.226667a55.466667 55.466667 0 0 0 7.68-2.773334L896 225.92z" p-id="4620" fill="#20B2AA"></path></svg>