<?xml version="1.0" standalone="no"?><!DOCTYPE svg PUBLIC "-//W3C//DTD SVG 1.1//EN" "http://www.w3.org/Graphics/SVG/1.1/DTD/svg11.dtd"><svg t="1611907167935" class="icon" viewBox="0 0 1024 1024" version="1.1" xmlns="http://www.w3.org/2000/svg" p-id="8495" xmlns:xlink="http://www.w3.org/1999/xlink" width="48" height="48"><defs><style type="text/css"></style></defs><path d="M884.266667 200.106667l-60.373334-60.373334a64 64 0 0 0-90.453333 0L155.946667 717.013333l-32.64 129.706667a42.666667 42.666667 0 0 0 10.24 43.733333 42.666667 42.666667 0 0 0 42.666666 10.666667l130.986667-33.28 577.066667-577.28a64 64 0 0 0 0-90.453333z m-599.253334 629.333333L164.266667 858.666667l30.293333-119.68L661.333333 271.786667 752.213333 362.666667zM853.333333 260.266667l-71.68 71.893333-90.453333-90.666667L763.52 170.666667a21.333333 21.333333 0 0 1 30.293333 0L853.333333 230.186667a21.333333 21.333333 0 0 1 0 30.08z" p-id="8496" fill="#20B2AA"></path></svg>