<?xml version="1.0" standalone="no"?><!DOCTYPE svg PUBLIC "-//W3C//DTD SVG 1.1//EN" "http://www.w3.org/Graphics/SVG/1.1/DTD/svg11.dtd"><svg t="1611906989855" class="icon" viewBox="0 0 1024 1024" version="1.1" xmlns="http://www.w3.org/2000/svg" p-id="3941" xmlns:xlink="http://www.w3.org/1999/xlink" width="48" height="48"><defs><style type="text/css"></style></defs><path d="M789.333333 128h-170.666666a21.333333 21.333333 0 0 0 0 42.666667h170.666666a64 64 0 0 1 64 64v156.16a21.333333 21.333333 0 0 0 42.666667 0V234.666667a106.666667 106.666667 0 0 0-106.666667-106.666667zM149.333333 412.16a21.333333 21.333333 0 0 0 21.333334-21.333333V234.666667a64 64 0 0 1 64-64h170.666666a21.333333 21.333333 0 0 0 0-42.666667h-170.666666a106.666667 106.666667 0 0 0-106.666667 106.666667v156.16a21.333333 21.333333 0 0 0 21.333333 21.333333zM874.666667 582.826667a21.333333 21.333333 0 0 0-21.333334 21.333333V789.333333a64 64 0 0 1-64 64h-170.666666a21.333333 21.333333 0 0 0 0 42.666667h170.666666a106.666667 106.666667 0 0 0 106.666667-106.666667v-185.173333a21.333333 21.333333 0 0 0-21.333333-21.333333zM405.333333 853.333333h-170.666666a64 64 0 0 1-64-64v-185.173333a21.333333 21.333333 0 0 0-42.666667 0V768a128 128 0 0 0 128 128h149.333333a21.333333 21.333333 0 0 0 0-42.666667zM192 490.666667a21.333333 21.333333 0 0 0 21.333333 21.333333h597.333334a21.333333 21.333333 0 0 0 0-42.666667H213.333333a21.333333 21.333333 0 0 0-21.333333 21.333334z" p-id="3942" fill="#20B2AA"></path></svg>