<?xml version="1.0" standalone="no"?><!DOCTYPE svg PUBLIC "-//W3C//DTD SVG 1.1//EN" "http://www.w3.org/Graphics/SVG/1.1/DTD/svg11.dtd"><svg t="1611564018537" class="icon" viewBox="0 0 1056 1024" version="1.1" xmlns="http://www.w3.org/2000/svg" p-id="2998" width="49.5" height="48" xmlns:xlink="http://www.w3.org/1999/xlink"><defs><style type="text/css"></style></defs><path d="M483.347932 966.695864a483.347932 483.347932 0 1 1 483.347932-483.347932 483.846229 483.846229 0 0 1-483.347932 483.347932z m0-891.453042a408.603406 408.603406 0 1 0 408.603406 408.603407 409.101703 409.101703 0 0 0-408.603406-408.603407z" fill="#20B2AA" p-id="2999"></path><path d="M1018.518735 1024a37.372263 37.372263 0 0 1-26.409733-10.96253l-204.301703-204.301704a37.372263 37.372263 0 0 1 52.819465-52.819464l204.301703 204.301703a37.372263 37.372263 0 0 1-26.409732 63.781995z" fill="#20B2AA" p-id="3000"></path></svg>